<svg id="svg1221" version="1.1" viewBox="0 0 28 28" xmlns="http://www.w3.org/2000/svg">
 <g id="layer1" transform="matrix(1.8 0 0 1.8 -353 -275)">
  <g id="g742" transform="matrix(.35 0 0 -.35 204 168)">
   <path id="path744" d="m0 0c12 0 21 9.5 21 21s-9.5 21-21 21-21-9.5-21-21 9.5-21 21-21" style="fill:#fff"/>
  </g>
  <g id="g746" transform="matrix(.35 0 0 -.35 204 168)">
   <path id="path748" d="m0 0c12 0 21 9.5 21 21s-9.5 21-21 21-21-9.5-21-21 9.5-21 21-21z" style="fill:none;stroke-width:2.5;stroke:#d70f37"/>
  </g>
  <g id="g1084" transform="matrix(.96 0 0 .96 8.5 5.9)">
   <g id="g11" stroke-miterlimit="10" style="stroke-miterlimit:10">
    <path id="path64" d="m202 156c-0.012 2e-3 -0.024-6e-3 -0.026-0.018l-0.28-1.5c-2e-3 -0.012 6e-3 -0.024 0.018-0.027l0.16-0.042c0.012-3e-3 0.023 4e-3 0.026 0.016l0.28 1.5c2e-3 0.012-6e-3 0.023-0.018 0.025z" style="stroke-miterlimit:10;stroke-width:.066;stroke:#000"/>
    <path id="path70" d="m203 156c0.012 2e-3 0.024-6e-3 0.026-0.018l0.28-1.5c2e-3 -0.012-6e-3 -0.024-0.018-0.027l-0.16-0.042c-0.012-3e-3 -0.023 4e-3 -0.026 0.016l-0.28 1.5c-2e-3 0.012 6e-3 0.023 0.018 0.025z" style="stroke-miterlimit:10;stroke-width:.066;stroke:#000"/>
    <g id="g1062" style="stroke:#000">
     <path id="path60" d="m208 163c0.01-0.54-0.03-2.2-0.89-3.2-0.35-0.4-0.8-0.62-1.3-0.68-0.13-0.4-0.5-0.69-0.94-0.69h-0.014v-0.67c0-0.74-0.6-1.3-1.3-1.3l-0.69-7.3e-4 -0.69 7.3e-4c-0.74 0-1.3 0.6-1.3 1.3v0.67h-0.014c-0.44 0-0.82 0.29-0.95 0.69-0.53 0.055-0.97 0.28-1.3 0.68-0.86 0.95-0.9 2.6-0.89 3.2-0.47 0.15-0.8 0.54-0.8 1 0 9e-3 1e-3 0.018 2e-3 0.026h0.63c-5.3e-4 -7e-3 -2e-3 -0.017-2e-3 -0.026 0-0.24 0.25-0.44 0.56-0.44s0.56 0.2 0.56 0.44c0 9e-3 -2e-3 0.018-3e-3 0.026h0.63c0-7e-3 2e-3 -0.017 2e-3 -0.026 0-0.43-0.28-0.8-0.68-0.97-0.022-0.56 0.053-2 0.66-2.6 0.17-0.19 0.37-0.31 0.61-0.36v2.7c0 0.55 0.44 0.99 0.99 0.99h4.1c0.55 0 0.99-0.45 0.99-0.99v-2.7c0.24 0.052 0.44 0.17 0.61 0.36 0.6 0.67 0.68 2.1 0.66 2.6-0.4 0.17-0.68 0.54-0.68 0.97 0 9e-3 2e-3 0.018 2e-3 0.026h0.64c-9.3e-4 -7e-3 -2e-3 -0.017-2e-3 -0.026 0-0.24 0.25-0.44 0.56-0.44s0.56 0.2 0.56 0.44c0 9e-3 -1e-3 0.018-2e-3 0.026h0.63c0-8e-3 1e-3 -0.017 1e-3 -0.026 0-0.47-0.34-0.87-0.8-1zm-6.3-0.25c-0.34 0-0.62-0.28-0.62-0.62v-2.1c0-0.34 0.28-0.62 0.62-0.62h2.3c0.34 0 0.62 0.28 0.62 0.62v2.1c0 0.34-0.28 0.62-0.62 0.62h-1.1z" style="fill:none;stroke-miterlimit:10;stroke-width:.2;stroke:#000"/>
     <path id="path76" d="m202 166v-0.72c0.18-0.11 0.3-0.29 0.3-0.49s-0.12-0.38-0.3-0.49v-0.47l-0.9 0.046v0.47c-0.14 0.11-0.23 0.27-0.23 0.44 0 0.18 0.089 0.33 0.23 0.44v0.77h0.9zm2.8 0v-0.77c0.14-0.11 0.23-0.27 0.23-0.44 0-0.18-0.088-0.33-0.23-0.44v-0.5l-0.9 0.018v0.43c-0.18 0.11-0.3 0.29-0.3 0.49s0.12 0.38 0.3 0.49v0.72z" style="fill:none;stroke-miterlimit:10;stroke-width:.2;stroke:#000"/>
    </g>
   </g>
   <g id="g1058" transform="translate(.094)">
    <path id="path1038" d="m202 157c0.061 0.2-0.05 0.41-0.25 0.47-0.2 0.061-0.41-0.05-0.47-0.25-0.061-0.2 0.05-0.41 0.25-0.47z" style="fill:#082300;paint-order:stroke fill markers"/>
    <path id="path1038-5" d="m203 157c-0.061 0.2 0.05 0.41 0.25 0.47 0.2 0.061 0.41-0.05 0.47-0.25 0.061-0.2-0.05-0.41-0.25-0.47z" style="fill:#082300;paint-order:stroke fill markers"/>
   </g>
  </g>
 </g>
</svg>
