<svg id="svg1221" version="1.1" viewBox="0 0 28 28" xmlns="http://www.w3.org/2000/svg">
 <g id="layer1" transform="matrix(1.8 0 0 1.8 -353 -275)" style="stroke-width:.54">
  <g id="g742" transform="matrix(.35 0 0 -.35 204 168)" style="stroke-width:.54">
   <path id="path744" d="m0 0c12 0 21 9.5 21 21s-9.5 21-21 21-21-9.5-21-21 9.5-21 21-21" style="fill:#fff;stroke-width:.54"/>
  </g>
  <g id="g746" transform="matrix(.35 0 0 -.35 204 168)" style="stroke-width:.54">
   <path id="path748" d="m0 0c12 0 21 9.5 21 21s-9.5 21-21 21-21-9.5-21-21 9.5-21 21-21z" style="fill:none;stroke-width:1.4;stroke:#d70f37"/>
  </g>
  <g id="g989" stroke-miterlimit="10" style="stroke-miterlimit:10;stroke-width:.54">
   <path id="path558" d="m198 159c0.76-0.67 1.9-0.59 2.6 0.16 0.67 0.76 0.59 1.9-0.17 2.6-0.76 0.67-1.9 0.59-2.6-0.17-0.67-0.76-0.59-1.9 0.16-2.6z" style="fill:none;stroke-miterlimit:10;stroke-width:.098;stroke:#000"/>
   <path id="path560" d="m206 162c0.76-0.67 1.9-0.59 2.6 0.16 0.67 0.76 0.59 1.9-0.16 2.6-0.76 0.67-1.9 0.59-2.6-0.16-0.67-0.76-0.59-1.9 0.17-2.6z" style="fill:none;stroke-miterlimit:10;stroke-width:.098;stroke:#000"/>
   <line id="line562" x1="199" x2="201" y1="159" y2="157" style="fill:none;stroke-miterlimit:10;stroke-width:.098;stroke:#000"/>
   <line id="line564" x1="201" x2="205" y1="161" y2="163" style="fill:none;stroke-miterlimit:10;stroke-width:.098;stroke:#000"/>
   <line id="line566" x1="207" x2="206" y1="161" y2="158" style="fill:none;stroke-miterlimit:10;stroke-width:.098;stroke:#000"/>
   <path id="path568" d="m202 158c0.06-0.052 0.15-0.062 0.21-0.026l0.74-0.86c-0.042-0.035-0.086-0.075-0.12-0.12-0.13-0.15-0.21-0.32-0.24-0.5l-0.86 0.18c1.3e-4 0.077-0.032 0.15-0.094 0.21-0.11 0.1-0.29 0.089-0.39-0.026-0.1-0.12-0.091-0.29 0.024-0.39 0.12-0.1 0.29-0.09 0.39 0.025 0.02 0.023 0.035 0.046 0.044 0.072l0.87-0.18c-0.018-0.18 0.012-0.37 0.087-0.54l-0.64-0.36c-0.062 0.045-0.15 0.038-0.2-0.019-0.053-0.06-0.049-0.15 0.011-0.2 0.06-0.053 0.15-0.046 0.2 0.014 0.028 0.031 0.04 0.069 0.034 0.11l0.64 0.35c0.057-0.1 0.13-0.19 0.22-0.27 0.035-0.031 0.073-0.06 0.11-0.087l-0.65-1.1c-0.06 0.014-0.12-5e-3 -0.17-0.054-0.064-0.073-0.055-0.18 0.016-0.24 0.072-0.064 0.18-0.057 0.24 0.016 0.058 0.065 0.057 0.16 5e-3 0.22l0.65 1.1c0.21-0.11 0.45-0.15 0.68-0.11l0.058-0.28c-0.04-0.018-0.082-0.044-0.11-0.08-0.11-0.13-0.099-0.32 0.028-0.44 0.13-0.11 0.32-0.1 0.44 0.028 0.11 0.13 0.099 0.32-0.029 0.43-0.06 0.053-0.13 0.075-0.21 0.077l-0.06 0.28c0.19 0.053 0.37 0.16 0.51 0.32 0.02 0.023 0.038 0.048 0.054 0.073l0.85-0.62c-0.069-0.13-0.042-0.29 0.073-0.39 0.14-0.12 0.34-0.11 0.46 0.03s0.11 0.34-0.029 0.46c-0.13 0.11-0.31 0.11-0.44-3e-3l-0.86 0.62c0.087 0.15 0.14 0.32 0.14 0.48l0.83-0.077c-2e-3 -0.049 0.017-0.099 0.058-0.14 0.071-0.062 0.18-0.055 0.24 0.017 0.062 0.071 0.057 0.18-0.014 0.24-0.072 0.064-0.18 0.055-0.24-0.014l-0.88 0.078c-8e-3 0.11-0.026 0.21-0.064 0.31l1.2 0.64c0.058-0.044 0.15-0.039 0.2 0.018 0.053 0.06 0.048 0.15-0.012 0.2-0.061 0.054-0.15 0.047-0.2-0.013-0.028-0.031-0.039-0.069-0.032-0.11l-1.2-0.63c-0.061 0.12-0.15 0.24-0.26 0.33-0.041 0.036-0.085 0.068-0.13 0.095l0.34 0.54c0.092-0.028 0.19-2e-3 0.26 0.074 0.091 0.1 0.08 0.26-0.023 0.35-0.1 0.091-0.26 0.08-0.35-0.023-0.089-0.1-0.08-0.25 0.016-0.35l-0.34-0.54c-0.21 0.11-0.44 0.14-0.67 0.1l-0.19 0.65c0.042 0.019 0.078 0.048 0.11 0.083 0.13 0.14 0.11 0.36-0.03 0.49s-0.36 0.11-0.49-0.03-0.11-0.36 0.033-0.49c0.076-0.067 0.17-0.093 0.27-0.08l0.19-0.65c-0.1-0.028-0.2-0.074-0.29-0.13l-0.75 0.88c0.042 0.077 0.026 0.17-0.042 0.23-0.08 0.071-0.2 0.064-0.27-0.016-0.069-0.079-0.06-0.2 0.02-0.27z" style="fill:none;stroke-miterlimit:10;stroke-width:.081;stroke:#000"/>
   <g id="g588" transform="matrix(.063 0 0 .063 197 153)" style="fill:none;stroke-width:.54;stroke:#000">
    <path id="path570" d="m170 141c1.4 1.6 1.3 4.1-0.36 5.5-1.6 1.4-4.1 1.3-5.5-0.36-1.4-1.6-1.3-4.1 0.36-5.5 1.6-1.4 4.1-1.3 5.5 0.34z" style="fill:none;stroke-miterlimit:10;stroke-width:1;stroke:#000"/>
    <path id="path572" d="m179 148c1.1 1.3 1 3.2-0.28 4.4-1.3 1.1-3.3 1-4.4-0.26s-1-3.3 0.28-4.4c1.3-1.1 3.3-1 4.4 0.29z" style="fill:none;stroke-miterlimit:10;stroke-width:1;stroke:#000"/>
    <path id="path574" d="m182 160c1 1.2 0.92 3-0.26 4-1.2 1-3 0.92-4-0.26-1-1.2-0.93-3 0.25-4 1.2-1 3-0.91 4 0.26z" style="fill:none;stroke-miterlimit:10;stroke-width:1;stroke:#000"/>
    <path id="path576" d="m177 171c0.99 1.1 0.87 2.8-0.24 3.8-1.1 0.99-2.8 0.88-3.8-0.24-0.98-1.1-0.87-2.8 0.25-3.8 1.1-0.98 2.8-0.88 3.8 0.24z" style="fill:none;stroke-miterlimit:10;stroke-width:1;stroke:#000"/>
    <path id="path578" d="m166 176c0.84 0.95 0.75 2.4-0.2 3.3-0.96 0.84-2.4 0.74-3.3-0.21-0.84-0.95-0.74-2.4 0.22-3.2 0.95-0.84 2.4-0.75 3.2 0.2z" style="fill:none;stroke-miterlimit:10;stroke-width:1;stroke:#000"/>
    <path id="path580" d="m154 173c0.75 0.85 0.66 2.2-0.18 2.9-0.86 0.76-2.2 0.67-2.9-0.19-0.75-0.85-0.68-2.2 0.18-2.9 0.84-0.75 2.2-0.66 2.9 0.19z" style="fill:none;stroke-miterlimit:10;stroke-width:1;stroke:#000"/>
    <path id="path582" d="m147 164c-0.45-0.75-1.4-0.99-2.2-0.53-0.76 0.45-1 1.4-0.54 2.2 0.47 0.75 1.5 1 2.2 0.54 0.76-0.47 1-1.4 0.53-2.2z" style="fill:none;stroke-miterlimit:10;stroke-width:1;stroke:#000"/>
    <path id="path584" d="m148 152c0.41 0.46 0.36 1.2-0.1 1.6s-1.2 0.36-1.6-0.1-0.36-1.2 0.098-1.6c0.46-0.41 1.2-0.36 1.6 0.098z" style="fill:none;stroke-miterlimit:10;stroke-width:1;stroke:#000"/>
    <path id="path586" d="m159 141c1.7 1.9 1.5 4.9-0.42 6.6-1.9 1.7-4.9 1.5-6.6-0.42-1.7-1.9-1.5-4.9 0.42-6.6 1.9-1.7 4.9-1.5 6.6 0.42z" style="fill:none;stroke-miterlimit:10;stroke-width:1;stroke:#000"/>
   </g>
   <g id="g608" transform="matrix(.063 0 0 .063 197 153)" style="fill:none;stroke-width:.54;stroke:#000">
    <path id="path590" d="m47 100c1.5 1.7 1.3 4.3-0.36 5.8-1.7 1.5-4.3 1.3-5.8-0.38-1.5-1.7-1.3-4.2 0.37-5.7 1.7-1.5 4.3-1.3 5.7 0.36z" style="fill:none;stroke-miterlimit:10;stroke-width:1;stroke:#000"/>
    <path id="path592" d="m56 107c1.2 1.3 1.1 3.4-0.28 4.5-1.3 1.2-3.4 1.1-4.6-0.28-1.2-1.3-1-3.4 0.3-4.6s3.4-1 4.5 0.31z" style="fill:none;stroke-miterlimit:10;stroke-width:1;stroke:#000"/>
    <path id="path594" d="m59 120c1.1 1.2 0.94 3.1-0.28 4.2-1.2 1.1-3.1 0.95-4.2-0.26-1.1-1.2-0.97-3.1 0.26-4.2 1.2-1.1 3.1-0.96 4.2 0.27z" style="fill:none;stroke-miterlimit:10;stroke-width:1;stroke:#000"/>
    <path id="path596" d="m54 131c1 1.2 0.9 3-0.26 4-1.2 1-2.9 0.91-4-0.26-1-1.2-0.89-2.9 0.27-3.9 1.2-1 2.9-0.93 4 0.23z" style="fill:none;stroke-miterlimit:10;stroke-width:1;stroke:#000"/>
    <path id="path598" d="m42 136c0.87 0.99 0.77 2.5-0.22 3.4-1 0.88-2.5 0.77-3.4-0.21-0.87-0.99-0.78-2.5 0.22-3.4 0.99-0.87 2.5-0.78 3.4 0.21z" style="fill:none;stroke-miterlimit:10;stroke-width:1;stroke:#000"/>
    <path id="path600" d="m30 133c0.78 0.89 0.7 2.2-0.19 3-0.9 0.79-2.2 0.7-3-0.19-0.79-0.9-0.71-2.2 0.18-3 0.89-0.78 2.2-0.7 3 0.2z" style="fill:none;stroke-miterlimit:10;stroke-width:1;stroke:#000"/>
    <path id="path602" d="m23 124c-0.48-0.76-1.5-1-2.3-0.55-0.78 0.48-1 1.5-0.54 2.3 0.47 0.77 1.5 1 2.3 0.56 0.8-0.49 1-1.5 0.57-2.3z" style="fill:none;stroke-miterlimit:10;stroke-width:1;stroke:#000"/>
    <path id="path604" d="m23 112c0.42 0.47 0.38 1.2-0.1 1.6-0.47 0.41-1.2 0.37-1.6-0.1-0.42-0.48-0.36-1.2 0.11-1.6 0.48-0.42 1.2-0.37 1.6 0.11z" style="fill:none;stroke-miterlimit:10;stroke-width:1;stroke:#000"/>
    <path id="path606" d="m35 100c1.8 2 1.6 5.1-0.42 6.8-2 1.8-5.1 1.6-6.8-0.44-1.8-2-1.6-5.1 0.44-6.8 2-1.8 5-1.6 6.8 0.44z" style="fill:none;stroke-miterlimit:10;stroke-width:1;stroke:#000"/>
   </g>
  </g>
  <path id="path610" d="m201 165 1.7-3.9c0.14-0.31 0.066-0.65-0.15-0.88l0.4-0.91c1.2 0.4 3-0.32 3.5-1.6 0.64-1.4-9e-3 -3.2-1.5-3.8-1.5-0.65-3.2 0.01-3.8 1.5-0.61 1.4-0.064 3 1.2 3.7l-0.4 0.9c-0.32-0.02-0.64 0.16-0.78 0.47l-1.7 3.9c-0.18 0.4 7.6e-4 0.88 0.41 1.1 0.4 0.18 0.88-2e-3 1.1-0.41zm1.9-6.2c-1.2-0.55-1.8-2-1.2-3.2 0.55-1.2 2-1.8 3.2-1.2 1.2 0.55 1.8 2 1.2 3.2-0.55 1.2-2 1.8-3.2 1.2z" stroke-miterlimit="10" style="fill:#d3d3d3;stroke-miterlimit:10;stroke-width:.098;stroke:#000"/>
 </g>
</svg>
