<svg id="svg1221" version="1.1" viewBox="0 0 28 28" xmlns="http://www.w3.org/2000/svg">
 <g id="g863" transform="matrix(1.8 0 0 1.8 -.2 14)">
  <g id="g694" transform="matrix(.28 0 0 -.28 7.9 7.4)">
   <path id="path696" d="m0 0c15 0 26 12 26 26 0 15-12 26-26 26s-26-12-26-26c0-15 12-26 26-26" style="fill:#fff"/>
  </g>
  <g id="g698" transform="matrix(.35 0 0 -.35 7.9 7.4)">
   <path id="path700" d="m0 0c12 0 21 9.5 21 21s-9.5 21-21 21-21-9.5-21-21 9.5-21 21-21" style="fill:#fff"/>
  </g>
  <g id="g702" transform="matrix(.35 0 0 -.35 7.9 7.4)">
   <path id="path704" d="m0 0c12 0 21 9.5 21 21s-9.5 21-21 21-21-9.5-21-21 9.5-21 21-21z" style="fill:none;stroke-width:2.5;stroke:#d70f37"/>
  </g>
  <g id="g972" transform="translate(-170 -161)" style="fill:#333">
   <g id="g706" transform="matrix(.54 0 0 -.54 181 155)" style="fill:#333;opacity:.8;stroke-width:.19">
    <path id="path708" d="m0-0.32h-3.2l0.22-0.69c0.027-0.12 0.025-0.12 0.011-0.25h2.5v-17h-13v17h2.5c-0.014 0.12-0.015 0.12 0.012 0.25l0.22 0.69h-3.2c-0.38 0-0.53-0.31-0.53-0.69v-17c0-0.38 0.15-0.53 0.53-0.53h14c0.38 0 0.53 0.15 0.53 0.53v17c0 0.38-0.15 0.69-0.53 0.69" style="fill:#333"/>
   </g>
   <g id="g710" transform="matrix(.54 0 0 -.54 180 158)" style="fill:#333;opacity:.8;stroke-width:.19">
    <path id="path712" d="m0-0.13h-4.7c-0.38 0-0.69-0.18-0.69-0.56s0.31-0.56 0.69-0.56h4.7c0.38 0 0.69 0.18 0.69 0.56s-0.31 0.56-0.69 0.56" style="fill:#333"/>
   </g>
   <g id="g714" transform="matrix(.54 0 0 -.54 180 160)" style="fill:#333;opacity:.8;stroke-width:.19">
    <path id="path716" d="m0-0.13h-4.7c-0.38 0-0.69-0.18-0.69-0.56s0.31-0.56 0.69-0.56h4.7c0.38 0 0.69 0.18 0.69 0.56s-0.31 0.56-0.69 0.56" style="fill:#333"/>
   </g>
   <g id="g718" transform="matrix(.54 0 0 -.54 175 158)" style="fill:#333;opacity:.8;stroke-width:.19">
    <path id="path720" d="m0 0c-0.29-0.24-0.23-0.59 0.012-0.88l1-1.2c0.13-0.16 0.32-0.24 0.53-0.24 0.017 0 0.034 1e-3 0.051 2e-3 0.22 0.016 0.23 0.14 0.35 0.32l1.8 2.9c0.2 0.32 0.19 0.65-0.13 0.85s-0.75 0.1-0.95-0.22l-1.4-2.2-0.39 0.46c-0.24 0.29-0.58 0.42-0.88 0.18" style="fill:#333"/>
   </g>
   <g id="g722" transform="matrix(.54 0 0 -.54 176 160)" style="fill:#333;opacity:.8;stroke-width:.19">
    <path id="path724" d="m0-0.19c-0.57 0-0.84-0.27-0.84-0.84s0.27-0.84 0.84-0.84 0.84 0.27 0.84 0.84-0.27 0.84-0.84 0.84" style="fill:#333"/>
   </g>
   <g id="g726" transform="matrix(.54 0 0 -.54 180 162)" style="fill:#333;opacity:.8;stroke-width:.19">
    <path id="path728" d="m0-0.13h-4.7c-0.38 0-0.69-0.18-0.69-0.56s0.31-0.56 0.69-0.56h4.7c0.38 0 0.69 0.18 0.69 0.56s-0.31 0.56-0.69 0.56" style="fill:#333"/>
   </g>
   <g id="g730" transform="matrix(.54 0 0 -.54 176 162)" style="fill:#333;opacity:.8;stroke-width:.19">
    <path id="path732" d="m0-0.19c-0.57 0-0.84-0.27-0.84-0.84s0.27-0.84 0.84-0.84 0.84 0.27 0.84 0.84-0.27 0.84-0.84 0.84" style="fill:#333"/>
   </g>
   <g id="g734" transform="matrix(.54 0 0 -.54 176 156)" style="fill:#333;opacity:.8;stroke-width:.19">
    <path id="path736" d="m0 0h5.8c0.14 0 0.28 0.064 0.37 0.18 0.09 0.11 0.12 0.26 0.094 0.4l-0.48 1.6c-0.047 0.22-0.24 0.37-0.46 0.37h-4.9c-0.22 0-0.42-0.16-0.46-0.37l-0.48-1.6c-0.03-0.14 5e-3 -0.29 0.094-0.4 0.09-0.11 0.23-0.18 0.37-0.18" style="fill:#333"/>
   </g>
  </g>
 </g>
</svg>
